**ABCDEFGHIJKLMNOPQRSTUVWXYZabcdefghijklmnopqrstuvwxyz**************************
**PARASOLID !"#$%&'()*+,-./:;<=>?@[\]^_`{|}~0123456789**************************
**PART1;
MC=AMD64;
MC_MODEL=Intel64 Family 6 Model 158 Stepping 10, GenuineIntel;
MC_ID=unknown;
OS=Windows_NT;
OS_RELEASE=unknown;
FRU=Parasolid Version 32.1, build 255,  1- 1-2021;
APPL=SOLIDWORKS 2021-2021085;
SITE=;
USER=unknown;
FORMAT=text;
GUISE=transmit;
KEY=Áã¼þ1;
FILE=Áã¼þ1.x_t;
DATE=Sun Oct 30 19:33:59 2022;
**PART2;
SCH=SCH_3201255_32001;
USFLD_SIZE=0;
**PART3;
**END_OF_HEADER*****************************************************************
T51 : TRANSMIT FILE created by modeller version 320125523 SCH_3201255_32001_1300
6229 0 12 34 CCCCCCI4 mesh1006 0 I8 polyline1008 0 CCCCCCCDI5 owner1040 0 CCCCCC
I13 boundary_mesh1006 0 I17 boundary_polyline1008 0 CCCA16 index_map_offset0 0 1
 dA9 index_map82 0 A17 node_id_index_map82 0 A20 schema_embedding_map82 0 A5 chi
ld12 0 A14 lowest_node_id0 0 1 dA16 mesh_offset_data206 0 Z1 247 2 3 0 0 0 0 0 0
 1e3 1e-8 0 4 0 1 0 1 1 5 6 7 0 0 0 8 9 0 0 0 0 0 0 0 0 81 255 2 2 241 10 1 11 0
 0 0 0 12 70 11 CI9 list_type0 0 1 uI10 notransmit0 0 1 lCCCDCCDI12 finger_index
0 0 1 dI12 finger_block1012 0 CZ3 0 4 T1 0 0 12 20 1 13 13 13 255 5 31 0 1 0 14
 0 0 15 0 51 255 6 30 0 14 16 0 0 +0 .000317690637993238 -.002 0 0 1 .0075 1 0 0
 31 255 7 25 0 17 18 0 0 +0 .000317690637993238 0 0 0 1 1 0 0 .0075 19 8 CCCCCCC
A5 owner12 0 Z8 9 0 1 15 0 19 V0 16 255 9 5 20 ?21 0 17 18 0 0 1 81 2 20 153 22
 9 0 0 23 0 0 0 17 255 21 0 24 21 21 0 25 9 0 0 +16 17 20 23 ?26 9 0 7 0 0 1 31
 18 7 0 9 0 7 0 +0 .000317690637993238 -.002 0 0 1 1 0 0 .0075 81 2 23 152 22 17
 0 0 0 20 0 0 17 26 0 27 26 26 0 28 17 0 0 +15 255 27 19 0 26 29 0 17 28 0 30 28
 28 0 26 17 0 0 -15 30 28 0 28 14 0 14 255 14 27 31 ?32 0 24 5 6 +0 0 32 0 19 81
 1 31 243 33 14 34 0 0 35 36 14 32 1 35 ?29 14 37 5 38 -0 0 29 14 19 15 24 26 0
 21 14 30 13 19 10 0 0 0 0 0 0 8 14 81 1 35 245 33 32 39 0 31 40 41 14 29 18 40
 ?0 32 27 5 16 +0 0 0 32 19 15 37 4 0 25 32 0 50 255 38 3 0 32 0 16 0 +0 .000317
690637993238 -.002 0 0 1 1 0 0 50 16 24 0 29 38 6 0 +0 .000317690637993238 0 0 0
 1 1 0 0 17 25 0 37 25 25 0 21 9 0 0 -81 1 40 247 33 29 42 0 35 0 43 80 255 1 33
 44 45 9000 1 1 1 1 1 1 1 1 0 FFFFTFTFFFFFFF1 81 3 42 246 46 29 47 40 39 0 48 0
 0 82 255 1 43 204341392 80 3 46 49 50 9000 0 0 0 0 3 6 0 0 0 FFTTTTTTFFFFTT1 1
 1 81 1 47 230 51 29 52 42 53 0 54 81 3 39 244 46 32 53 35 34 42 55 0 0 82 3 48
 738924 3 0 81 1 53 229 51 32 56 39 57 47 58 81 3 34 242 46 14 57 31 0 39 59 0 0
 82 3 55 738924 2 0 81 1 57 228 51 14 60 34 0 53 61 82 3 59 738924 4 0 80 1 51 0
 62 8001 0 0 0 0 3 5 0 0 0 FFFFTFTFFFFFFF2 81 2 60 142 63 14 0 57 0 56 0 0 83 25
5 3 61 1 1 1 80 2 63 64 65 9000 0 0 0 0 3 6 0 0 0 FFFFTFFFFFFFFF9 1 81 2 56 144
 63 32 0 53 60 52 0 0 81 2 52 146 63 29 0 47 56 0 0 0 79 255 14 65 FACE_ID_2_200
179 15 62 SDL/TYSA_COLOUR83 3 58 1 1 1 83 3 54 1 1 1 79 12 50 GENERIC_PERM79 14
 45 SWEntUnchanged82 1 41 202637456 82 1 36 204603536 80 2 22 66 67 9000 0 0 0 0
 3 6 0 0 0 FFFFFFTFFFFFFF9 1 79 19 67 EDGE_PERM_ID_2_200319 15 32 0 1 0 8 5 S0 7
4 4 CI16 index_map_offset0 0 1 dCCZ20 13 12 0 0 42 68 69 40 70 71 72 11 52 20 47
 2 0 0 0 0 0 0 0 0 81 2 68 42 73 1 0 69 0 0 0 74 81 2 69 43 75 1 68 70 0 0 0 76
 81 1 70 50 77 1 69 71 0 0 78 81 2 71 52 79 1 70 72 0 0 0 0 81 2 72 53 80 1 71 1
1 0 0 81 0 81 2 11 123 82 1 72 2 0 0 0 83 80 2 82 84 85 9000 0 0 0 0 3 5 0 0 0 F
FTFFFFFFFFFFF9 1 82 1 83 1 79 24 85 BODY_IN_LIGHTWEIGHT_PERM80 2 80 86 87 8004 0
 0 0 0 3 5 0 0 0 FFTFFFFFFFFFFF2 3 83 1 81 1e3 79 16 87 SDL/TYSA_DENSITY80 2 79
 88 89 9000 0 0 0 0 3 5 0 0 0 FFTFFFFFFFFFFF9 1 79 16 89 BODY_RECIPE_200180 1 77
 90 91 9000 1 1 1 1 1 1 1 1 0 FFTFFFFFFFFFFF1 82 1 78 3090 79 10 91 BODY_MATCH80
 2 75 92 93 9000 0 0 0 0 3 5 0 0 0 FFTFFFFFFFFFFF9 1 82 1 76 115 79 19 93 ENT_TI
ME_STAMP_200180 2 73 94 95 9000 0 0 0 0 3 5 0 0 0 FFTFFFFFFFFFFF9 1 82 1 74 95 7
9 30 95 LAST_BODY_MODIFYING_FEATURE_ID80 2 10 22 96 9000 0 0 0 0 3 5 0 0 0 FFTFF
FFFFFFFFF9 1 82 1 12 106 79 12 96 ATOM_ID_20011 0 
